# Blender 4.5.3 LTS
# www.blender.org
mtllib diablo_lod4.mtl
o diablo3_pose
v 0.126416 0.724088 0.107379
v 0.105101 0.650000 0.123507
v 0.054077 0.651041 0.151947
v 0.123187 0.689250 0.033754
v 0.117886 0.532270 0.054984
v 0.021650 0.656844 0.163950
v 0.066628 0.578411 0.159157
v 0.090495 0.826941 0.077707
v 0.075552 0.582815 0.000079
v 0.089406 0.483058 0.033154
v 0.023619 0.819287 0.094080
v -0.041142 0.886534 0.084942
v -0.008994 0.817743 0.055730
v -0.288159 -0.462316 0.128735
v -0.069357 -0.178612 0.037123
v -0.192396 0.020694 -0.055722
v -0.116041 -0.041999 0.028952
v -0.229846 -0.534555 0.102296
v -0.383585 -0.390981 -0.033184
v -0.320074 -0.500803 0.062642
v -0.127136 -0.137608 -0.288188
v -0.218877 -0.122882 -0.224036
v -0.197864 -0.390456 -0.175445
v -0.141330 -0.498437 -0.043850
v -0.308039 -0.345959 -0.155935
v -0.323963 -0.426932 -0.347968
v -0.227342 -0.444212 -0.464031
v -0.295953 -0.588813 -0.331047
v 0.007669 -0.168105 -0.000548
v -0.227327 -0.521360 -0.526162
v -0.357504 -0.467657 -0.478983
v -0.306361 -0.734897 -0.329104
v -0.260057 -0.694796 -0.470101
v -0.251111 -0.802787 -0.368653
v -0.384900 -0.689686 -0.443644
v -0.340867 -0.824670 -0.234892
v -0.441904 -0.859740 -0.243812
v -0.351015 -0.816846 -0.479255
v -0.370224 -0.852804 -0.137241
v -0.407685 -0.976012 -0.029976
v -0.435230 -0.953378 -0.090634
v -0.324567 -0.929149 -0.207859
v -0.415303 -0.964788 -0.307301
v -0.503879 -0.874856 -0.256999
v -0.600359 -0.977736 -0.185379
v -0.407997 -0.910133 -0.225578
v -0.248658 -0.945562 -0.272776
v -0.217711 -0.851028 -0.181681
v -0.208352 -0.965625 -0.093830
v -0.259814 -0.852407 -0.173262
v -0.208028 -0.942060 -0.161352
v 0.093981 -0.024824 0.022179
v -0.178727 0.101579 -0.040826
v -0.219908 0.119148 -0.137520
v 0.023535 -0.210523 -0.216936
v -0.318356 -0.440560 -0.523887
v -0.221793 -0.519276 -0.575757
v -0.591526 -0.671838 -0.527993
v -0.761281 -0.768585 -0.287409
v -0.257446 -0.281663 -0.551528
v -0.511942 -0.542776 -0.572085
v -0.200512 -0.110218 -0.397310
v -0.205085 -0.112659 -0.484983
v -0.209283 -0.203685 -0.565988
v -0.237004 -0.048992 -0.487325
v -0.198367 -0.004710 -0.434005
v -0.107735 0.020962 -0.443547
v -0.256824 0.126161 -0.334715
v -0.032131 0.211418 -0.026019
v -0.067734 0.084025 0.001434
v -0.081614 0.401946 0.024486
v 0.022165 0.485301 0.030130
v -0.263088 0.129247 -0.213309
v -0.170032 0.130323 -0.268244
v 0.115454 0.206059 -0.099686
v -0.144721 0.213259 -0.072552
v -0.314926 0.405151 -0.288559
v -0.230402 0.277685 -0.345108
v -0.265879 0.392609 -0.294912
v -0.128023 0.336308 -0.364497
v -0.141302 0.499329 0.079003
v -0.214518 0.318783 -0.321840
v -0.469864 0.491187 -0.456405
v -0.206331 0.468379 -0.359263
v -0.309870 0.515177 -0.300895
v -0.465856 0.650232 -0.382628
v -0.432351 0.690345 -0.290958
v -0.343643 0.688735 -0.352280
v -0.151356 0.567202 -0.396842
v -0.170313 0.686705 -0.289247
v -0.262673 0.648187 -0.251602
v -0.616842 0.782164 -0.366880
v -0.224481 0.513130 -0.527335
v -0.231451 0.701815 -0.143454
v -0.179609 0.736316 -0.133340
v -0.349824 0.490218 -0.350030
v -0.104898 0.750068 -0.092815
v -0.099726 0.802653 -0.137731
v -0.010775 0.862113 -0.070556
v -0.187132 0.663288 -0.073942
v -0.217707 0.600885 -0.055800
v -0.337904 0.465301 -0.188024
v -0.333718 0.525719 -0.136747
v -0.411304 0.389393 0.108810
v -0.383439 0.360464 -0.096709
v -0.260438 0.431630 0.154213
v -0.448255 0.289127 0.084996
v -0.395296 0.346719 0.235595
v -0.513776 0.352310 0.225457
v -0.262942 0.571918 -0.043606
v -0.502500 0.340214 0.464734
v -0.523607 0.223395 0.219587
v -0.321629 0.234869 0.051186
v -0.183213 0.393129 -0.001652
v -0.368186 0.211841 0.218392
v -0.401396 0.316902 0.463264
v -0.568641 0.181083 0.589485
v -0.509909 0.214362 0.656585
v -0.417247 0.262999 0.628407
v -0.461503 0.237095 0.734137
v -0.453204 0.163696 0.793814
v -0.297358 0.566711 -0.092888
v -0.470039 0.192939 0.658503
v -0.341594 0.214908 0.515443
v -0.295788 0.148495 0.548997
v -0.394961 0.215035 0.541183
v -0.489570 0.272680 0.447188
v -0.474887 0.040957 0.679712
v -0.507158 0.172091 0.628687
v -0.543185 0.143647 0.641148
v -0.463806 0.073136 0.566982
v -0.534559 0.172115 0.589170
v -0.539900 0.133108 0.559260
v -0.048534 0.677867 -0.021378
v 0.071530 0.584771 -0.047136
v -0.093060 0.969050 -0.154915
v -0.103707 0.767671 0.068043
v 0.041419 0.501307 0.049534
v -0.098133 0.636001 0.082347
v -0.006377 0.603347 0.134414
v -0.208246 0.522759 0.037774
v -0.021074 0.529781 0.176493
v -0.190451 0.829506 -0.045307
v -0.027251 0.778777 0.114822
v -0.113496 0.551373 0.051500
v 0.107733 0.081733 -0.041031
v 0.150302 0.530033 -0.060765
v 0.243790 0.623277 -0.231252
v 0.215161 0.361896 -0.192036
v 0.235616 0.480076 -0.172099
v 0.088903 0.499469 0.033006
v 0.095974 0.489475 0.028129
v 0.386653 -0.378212 -0.068533
v 0.116240 -0.208739 -0.001102
v 0.174041 0.076460 -0.119696
v 0.370969 -0.508744 -0.085696
v 0.424574 -0.499107 -0.138468
v 0.434532 -0.431025 -0.061516
v 0.429867 -0.304652 -0.187316
v 0.205877 -0.082649 -0.238096
v 0.247408 -0.514616 -0.198379
v 0.103019 -0.155271 -0.269447
v 0.016872 -0.089324 -0.455839
v 0.307435 -0.334483 -0.336558
v 0.220217 -0.429887 -0.290482
v 0.328271 -0.419884 -0.504845
v 0.190020 -0.492155 -0.609313
v 0.356823 -0.555526 -0.549349
v 0.300794 -0.594418 -0.478018
v 0.197020 -0.579299 -0.660785
v 0.315718 -0.489623 -0.659921
v 0.296500 -0.728983 -0.557033
v 0.345345 -0.804126 -0.468376
v 0.388397 -0.794144 -0.611786
v 0.555478 -0.826216 -0.373145
v 0.589510 -0.843116 -0.458444
v 0.416082 -0.802609 -0.437832
v 0.503337 -0.848885 -0.340218
v 0.562299 -0.946868 -0.311961
v 0.616239 -0.950929 -0.241421
v 0.495636 -0.952773 -0.469111
v 0.607730 -0.868504 -0.506648
v 0.754136 -0.951610 -0.426113
v 0.633037 -0.898286 -0.450150
v 0.409068 -0.941814 -0.395889
v 0.449046 -0.853012 -0.291265
v 0.458074 -0.958161 -0.202721
v 0.429741 -0.946685 -0.260865
v -0.519293 -0.653559 -0.619486
v -0.159962 -0.260216 -0.583643
v -0.023018 -0.119958 -0.518236
v -0.095378 -0.125634 -0.550406
v -0.072514 -0.048897 -0.568622
v -0.053617 0.073339 -0.503342
v 0.037867 0.112259 -0.439398
v 0.178549 0.117456 -0.249712
v 0.120839 0.116243 -0.373871
v 0.031997 0.126923 -0.361051
v 0.145777 0.216484 -0.197195
v 0.095225 0.403631 -0.454391
v 0.035791 0.397054 -0.488980
v -0.064889 0.275427 -0.450268
v 0.054925 0.259563 -0.382308
v 0.007266 0.438931 -0.492502
v -0.049163 0.547594 -0.705347
v -0.077451 0.477719 -0.442648
v 0.010163 0.556117 -0.502888
v 0.039229 0.853266 -0.787727
v 0.043102 0.667078 -0.480957
v -0.052379 0.728502 -0.529274
v -0.014222 0.707013 -0.373155
v 0.038781 0.867218 -0.729610
v 0.090181 0.745128 -0.316817
v 0.065221 0.768608 -0.263694
v -0.008688 0.528187 -0.562068
v 0.052212 0.820745 -0.209445
v 0.189090 0.678253 -0.306555
v 0.125548 0.713727 -0.408124
v 0.104467 0.686143 -0.512468
v 0.125334 0.480916 -0.554139
v 0.273476 0.462827 -0.443203
v 0.193637 0.704211 -0.368324
v 0.228677 0.483253 -0.289035
v 0.260761 0.373220 -0.540513
v 0.236372 0.255118 -0.478607
v 0.279619 0.331346 -0.649803
v 0.145753 0.246024 -0.631741
v 0.089427 0.370112 -0.522958
v 0.389718 0.138728 -0.719242
v 0.349253 0.124618 -0.643537
v 0.426973 0.166573 -0.610535
v 0.407236 -0.011188 -0.711781
v 0.501653 -0.044648 -0.648454
v 0.512342 0.045940 -0.589617
v 0.591517 -0.038929 -0.593249
v 0.607453 -0.117308 -0.541587
v 0.397809 0.084524 -0.560425
v 0.499511 -0.034223 -0.601843
v 0.401957 0.039024 -0.416103
v 0.426829 0.063820 -0.523356
v 0.481484 -0.198457 -0.553838
v 0.461781 -0.062263 -0.631185
v 0.387476 -0.144747 -0.563924
v 0.419571 -0.081903 -0.666443
v 0.375696 -0.064692 -0.651588
v 0.131192 0.801615 -0.061799
v -0.009121 0.996731 -0.149147
v 0.076427 0.874501 -0.110205
v 0.304223 0.707937 0.102790
v 0.308655 0.656542 0.050140
v 0.133447 0.577129 0.187340
v 0.207511 0.660242 0.102772
v 0.135946 0.930292 -0.020334
v 0.088128 0.595016 0.002689
v 0.110222 0.541435 0.004521
v 0.114248 0.526615 0.020926
vn 0.4095 0.1579 0.8985
vn 0.7312 -0.0555 0.6799
vn 0.2694 0.0362 0.9623
vn 0.8744 -0.4840 0.0341
vn 0.6816 -0.6215 -0.3862
vn -0.1315 0.0822 0.9879
vn 0.4019 0.6571 0.6378
vn 0.2317 -0.4409 0.8671
vn -0.3611 -0.9295 -0.0751
vn 0.2791 -0.9409 -0.1918
vn 0.2720 -0.5280 -0.8045
vn -0.3912 0.9002 0.1912
vn -0.4312 0.9023 -0.0020
vn 0.1509 0.5937 0.7904
vn -0.9838 0.0909 0.1547
vn -0.3626 -0.0898 0.9276
vn -0.8817 0.1396 0.4506
vn -0.8135 0.0268 -0.5810
vn -0.6449 0.5027 -0.5757
vn 0.6057 0.1090 -0.7882
vn -0.9162 -0.3785 -0.1313
vn 0.0742 -0.9904 -0.1169
vn 0.7855 -0.6144 0.0740
vn 0.4099 -0.0116 0.9120
vn 0.2291 -0.7232 0.6515
vn -0.8026 0.5596 -0.2064
vn 0.5170 0.7120 -0.4750
vn 0.5434 0.0095 -0.8394
vn 0.2736 -0.4014 0.8741
vn -0.2493 -0.7975 0.5493
vn -0.7490 0.4725 -0.4645
vn 0.2405 0.5330 0.8112
vn 0.9972 -0.0671 -0.0330
vn -0.9133 0.1719 -0.3693
vn 0.4808 -0.2942 -0.8260
vn -0.6367 -0.4729 0.6091
vn -0.9431 -0.3209 0.0876
vn 0.0826 0.8566 0.5094
vn 0.0906 0.7736 0.6272
vn -0.5385 0.7190 0.4393
vn -0.0847 -0.4721 0.8775
vn 0.2817 -0.7611 0.5843
vn -0.1872 -0.3893 -0.9019
vn -0.5102 -0.8273 -0.2349
vn -0.7874 -0.5290 0.3165
vn -0.7369 0.4872 -0.4688
vn 0.7468 -0.6610 -0.0727
vn -0.2947 0.4442 0.8461
vn 0.6899 0.7216 0.0569
vn 0.4199 -0.8833 -0.2084
vn 0.1434 -0.6602 0.7372
vn -0.0427 0.2637 0.9637
vn 0.2724 0.1922 0.9428
vn -0.1081 0.2400 0.9647
vn -0.3016 -0.0999 0.9482
vn 0.5240 -0.8062 -0.2748
vn 0.7612 -0.0999 0.6408
vn -0.2688 -0.6144 -0.7418
vn 0.5635 0.3680 -0.7396
vn -0.8170 0.4323 -0.3817
vn -0.7336 0.6690 -0.1193
vn -0.8938 0.0199 0.4480
vn -0.8274 0.2529 -0.5015
vn -0.8385 0.4601 -0.2920
vn -0.7706 0.2214 -0.5976
vn -0.4569 0.7025 -0.5457
vn -0.7160 0.5646 -0.4105
vn -0.9173 0.2138 0.3359
vn 0.0973 -0.0829 0.9918
vn -0.7150 -0.0015 0.6992
vn -0.6710 0.2517 0.6974
vn -0.7752 -0.0340 -0.6308
vn -0.4943 0.4564 -0.7398
vn 0.0057 -0.3507 0.9365
vn 0.1583 -0.7450 0.6480
vn -0.4329 -0.3263 -0.8403
vn -0.8513 -0.3559 -0.3854
vn -0.8533 0.3308 -0.4032
vn -0.7081 -0.2438 -0.6627
vn -0.5782 0.0083 -0.8158
vn -0.9139 -0.3030 -0.2703
vn -0.9624 0.2577 -0.0859
vn -0.2518 0.4266 0.8687
vn -0.4669 0.8082 0.3590
vn -0.8497 0.5133 -0.1204
vn 0.1747 0.8862 -0.4291
vn -0.4397 -0.4116 -0.7983
vn -0.4900 0.3503 -0.7983
vn -0.5209 0.2161 -0.8258
vn 0.3622 0.0888 0.9279
vn 0.7616 -0.0536 0.6458
vn -0.5173 0.6414 0.5666
vn -0.3951 0.5173 0.7592
vn -0.8547 0.3573 0.3766
vn -0.6822 0.7289 0.0571
vn -0.7433 -0.3909 -0.5429
vn -0.7903 -0.3484 -0.5041
vn 0.4274 0.7692 0.4751
vn 0.3808 0.3335 0.8624
vn -0.8760 0.4483 -0.1779
vn -0.7201 0.6262 0.2987
vn -0.4164 0.7961 0.4392
vn -0.7372 0.6707 -0.0818
vn -0.5974 0.7924 0.1236
vn -0.5847 -0.7452 -0.3206
vn -0.7395 -0.6520 -0.1677
vn 0.2869 -0.9410 -0.1794
vn -0.8166 -0.4710 -0.3336
vn -0.8103 0.2585 -0.5260
vn 0.5162 -0.8421 0.1561
vn 0.8303 0.5573 -0.0002
vn -0.4268 0.3878 0.8169
vn -0.9871 -0.1326 0.0897
vn 0.4779 0.6752 0.5619
vn -0.3200 0.7765 0.5429
vn -0.0295 -0.4473 0.8939
vn -0.6774 0.7135 0.1791
vn -0.4943 0.5854 0.6426
vn -0.0800 -0.7423 0.6652
vn -0.1611 -0.9614 -0.2231
vn 0.7184 -0.6957 0.0054
vn 0.7632 -0.0921 -0.6396
vn 0.1311 -0.9691 0.2088
vn 0.6004 -0.7899 0.1249
vn -0.4980 -0.5718 0.6520
vn 0.5262 -0.7348 -0.4281
vn 0.3926 -0.8827 -0.2583
vn 0.0156 -0.9880 -0.1537
vn -0.5468 -0.8116 -0.2057
vn 0.4994 -0.1038 0.8602
vn -0.1853 0.8180 -0.5445
vn -0.6871 0.5702 -0.4503
vn -0.7763 0.3042 0.5521
vn -0.2807 0.7686 -0.5749
vn -0.3792 -0.2169 0.8995
vn -0.5042 -0.4617 0.7298
vn -0.7559 -0.6488 -0.0876
vn 0.6612 -0.2753 0.6979
vn -0.3170 0.3956 0.8620
vn -0.7257 0.2270 -0.6495
vn 0.5309 0.3846 0.7552
vn 0.6901 0.1404 0.7100
vn 0.9392 -0.3411 0.0401
vn 0.9252 -0.0837 0.3701
vn 0.4041 0.2256 0.8865
vn 0.6495 -0.0557 0.7583
vn 0.9131 0.4044 -0.0512
vn 0.0513 -0.7898 0.6113
vn 0.7500 -0.6547 0.0940
vn -0.5840 -0.7633 0.2763
vn 0.3626 -0.4084 -0.8377
vn 0.7963 -0.0935 -0.5976
vn 0.7064 0.2529 -0.6611
vn 0.8530 0.3754 0.3624
vn -0.0091 0.7190 -0.6950
vn -0.9761 -0.1031 -0.1913
vn 0.9804 0.1763 -0.0880
vn -0.2263 -0.4982 0.8370
vn -0.8032 0.4728 -0.3623
vn -0.7323 -0.2178 -0.6452
vn -0.1164 -0.7771 0.6185
vn 0.3948 0.5110 -0.7636
vn -0.8322 -0.3441 0.4349
vn -0.4070 0.3605 0.8393
vn 0.0090 -0.4553 -0.8903
vn -0.7484 -0.6403 -0.1732
vn 0.4392 0.7656 0.4700
vn 0.1209 0.5553 0.8228
vn -0.2603 -0.9560 0.1356
vn 0.4535 -0.4210 0.7856
vn 0.8111 0.5775 0.0927
vn -0.3211 -0.7122 -0.6243
vn 0.8452 -0.4667 0.2603
vn -0.2505 -0.7512 0.6107
vn 0.5436 0.0927 -0.8342
vn -0.5161 -0.8442 0.1446
vn 0.0945 -0.5504 0.8295
vn -0.3212 0.7337 0.5987
vn -0.6139 -0.7838 0.0942
vn 0.3047 -0.0247 -0.9521
vn 0.7329 -0.2022 -0.6496
vn 0.0198 0.0481 -0.9986
vn 0.0555 0.2608 -0.9638
vn -0.1869 0.6914 -0.6979
vn 0.2861 0.6913 -0.6636
vn 0.9362 0.2661 -0.2295
vn 0.6109 0.6048 -0.5108
vn 0.0633 0.5589 -0.8268
vn 0.9988 -0.0263 -0.0421
vn 0.5891 -0.2925 -0.7533
vn -0.0500 0.4874 -0.8718
vn 0.7423 -0.0751 -0.6659
vn 0.6580 0.1551 -0.7369
vn -0.5199 0.2807 -0.8068
vn -0.0637 0.9685 -0.2406
vn -0.4617 0.8747 0.1474
vn -0.3416 0.8802 -0.3296
vn -0.2466 0.0337 -0.9685
vn 0.2545 0.9668 -0.0221
vn 0.2559 0.8534 -0.4542
vn 0.1594 0.3756 -0.9130
vn 0.5971 0.6705 -0.4404
vn 0.2417 0.8394 -0.4868
vn 0.4030 0.8448 0.3521
vn 0.9513 0.1651 0.2602
vn 0.1205 0.9632 -0.2401
vn 0.3088 0.9049 -0.2928
vn 0.9699 0.1274 -0.2075
vn 0.7246 0.5577 -0.4050
vn -0.1009 0.0157 -0.9948
vn 0.3339 -0.9425 -0.0109
vn 0.0748 -0.6293 0.7735
vn 0.0684 0.6780 -0.7318
vn 0.5307 0.8471 -0.0280
vn 0.7436 0.5626 0.3614
vn -0.8449 -0.2620 -0.4665
vn 0.1332 0.7540 -0.6433
vn 0.1277 0.1497 -0.9805
vn -0.1351 -0.8606 -0.4910
vn -0.1391 0.3191 -0.9375
vn -0.9107 -0.2429 -0.3342
vn 0.7216 0.6080 0.3311
vn -0.7396 -0.6523 0.1659
vn 0.8098 -0.2584 -0.5267
vn -0.2957 -0.1952 -0.9351
vn 0.8553 0.4944 0.1553
vn 0.5545 -0.7542 0.3517
vn 0.8581 0.1878 -0.4779
vn -0.9176 -0.1589 0.3644
vn -0.1308 0.2235 -0.9659
vn 0.2569 -0.9041 0.3414
vn -0.1012 -0.3619 0.9267
vn 0.6068 -0.7793 0.1564
vn -0.0308 -0.8996 0.4356
vn -0.5616 0.0751 0.8240
vn -0.1184 -0.9581 -0.2610
vn -0.5081 -0.5891 0.6283
vn -0.7763 -0.6011 0.1898
vn 0.8935 0.3858 -0.2297
vn -0.2589 0.7722 -0.5802
vn 0.7971 0.3531 0.4899
vn 0.7709 -0.4973 -0.3979
vn -0.6823 -0.5071 0.5266
vn -0.8082 -0.4994 0.3121
vn 0.5499 0.6232 -0.5562
vn 0.7985 -0.3430 -0.4948
vn 0.1691 0.0367 -0.9849
vn -0.7426 -0.5644 0.3606
vn -0.8153 0.5590 0.1513
vn -0.4751 0.3635 -0.8014
vn 0.2012 0.2540 0.9461
vn 0.5773 -0.6094 -0.5434
vn 0.4617 0.7475 -0.4776
vn 0.3685 -0.6434 -0.6710
vn 0.3682 -0.6427 -0.6719
vn 0.3687 -0.6430 -0.6713
vt 0.702154 0.193014
vt 0.654598 0.174938
vt 0.600918 0.232814
vt 0.672152 0.054793
vt 0.562000 0.130000
vt 0.739087 0.212293
vt 0.626200 0.320512
vt 0.720021 0.141320
vt 0.793994 0.057002
vt 0.736376 0.013256
vt 0.294520 0.955315
vt 0.332431 0.987456
vt 0.240235 0.986882
vt 0.288101 0.655131
vt 0.358291 0.699205
vt 0.314467 0.628994
vt 0.517174 0.726108
vt 0.565943 0.684958
vt 0.597305 0.840429
vt 0.507723 0.843885
vt 0.498501 0.748499
vt 0.467484 0.755651
vt 0.469769 0.868480
vt 0.423000 0.813000
vt 0.437858 0.700466
vt 0.648703 0.642436
vt 0.651122 0.773034
vt 0.582277 0.646032
vt 0.395496 0.555121
vt 0.396103 0.507648
vt 0.470760 0.474489
vt 0.476711 0.421155
vt 0.371155 0.459513
vt 0.314550 0.426457
vt 0.504628 0.398155
vt 0.395000 0.801000
vt 0.519284 0.541534
vt 0.550000 0.583000
vt 0.481769 0.644613
vt 0.509879 0.443159
vt 0.545297 0.558506
vt 0.614557 0.521730
vt 0.619335 0.561963
vt 0.549736 0.506926
vt 0.597712 0.447036
vt 0.569444 0.375563
vt 0.703166 0.690117
vt 0.693038 0.634366
vt 0.735171 0.663479
vt 0.670052 0.511765
vt 0.682121 0.477457
vt 0.699185 0.490591
vt 0.710866 0.605671
vt 0.779370 0.651672
vt 0.766000 0.677000
vt 0.681238 0.675570
vt 0.690747 0.609919
vt 0.631514 0.413635
vt 0.679000 0.699000
vt 0.817533 0.673458
vt 0.884267 0.714298
vt 0.865235 0.736316
vt 0.839531 0.725645
vt 0.813555 0.731111
vt 0.833646 0.773083
vt 0.746000 0.415000
vt 0.702719 0.445080
vt 0.718200 0.397121
vt 0.679387 0.571703
vt 0.685000 0.525000
vt 0.685568 0.535374
vt 0.616885 0.597470
vt 0.568884 0.586556
vt 0.729830 0.740819
vt 0.748009 0.707620
vt 0.784070 0.718136
vt 0.703000 0.714000
vt 0.700000 0.733000
vt 0.052196 0.738850
vt 0.013433 0.632272
vt 0.006000 0.694000
vt 0.684117 0.789759
vt 0.638539 0.854693
vt 0.640674 0.817572
vt 0.220221 0.916270
vt 0.295452 0.907510
vt 0.282603 0.731236
vt 0.239330 0.751964
vt 0.177927 0.629867
vt 0.183628 0.665255
vt 0.123803 0.534274
vt 0.338936 0.761631
vt 0.222081 0.649819
vt 0.336713 0.873268
vt 0.375884 0.846741
vt 0.376041 0.898699
vt 0.377591 0.871108
vt 0.414153 0.901083
vt 0.377451 0.943482
vt 0.568103 0.903911
vt 0.361958 0.380067
vt 0.415696 0.361665
vt 0.415917 0.311181
vt 0.361143 0.345327
vt 0.375270 0.297127
vt 0.392019 0.176568
vt 0.376550 0.241020
vt 0.403412 0.967621
vt 0.476700 0.352345
vt 0.495686 0.301529
vt 0.871524 0.674323
vt 0.914900 0.676781
vt 0.915575 0.561346
vt 0.796984 0.605842
vt 0.821037 0.627625
vt 0.913300 0.560161
vt 0.859174 0.650300
vt 0.936050 0.497243
vt 0.902000 0.477000
vt 0.825696 0.513605
vt 0.867331 0.465992
vt 0.771156 0.574570
vt 0.829166 0.469104
vt 0.765606 0.498001
vt 0.842863 0.564848
vt 0.823407 0.378014
vt 0.798000 0.378000
vt 0.926275 0.952445
vt 0.908312 0.901963
vt 0.971519 0.897034
vt 0.026944 0.956560
vt 0.049225 0.816460
vt 0.006000 0.834799
vt 0.269725 0.101489
vt 0.233694 0.119229
vt 0.230891 0.061764
vt 0.120293 0.091626
vt 0.246311 0.284660
vt 0.306335 0.231137
vt 0.291147 0.302025
vt 0.203859 0.346719
vt 0.185898 0.271658
vt 0.266231 0.174066
vt 0.246532 0.169172
vt 0.220475 0.172442
vt 0.249703 0.354139
vt 0.255471 0.444953
vt 0.281960 0.434826
vt 0.288755 0.354310
vt 0.351000 0.217000
vt 0.345441 0.278510
vt 0.359210 0.255517
vt 0.981452 0.601618
vt 0.940721 0.653559
vt 0.984000 0.660000
vt 0.964210 0.555016
vt 0.981798 0.596241
vt 0.976235 0.541434
vt 0.145300 0.364179
vt 0.319410 0.347191
vt 0.160338 0.451186
vt 0.202015 0.446868
vt 0.276101 0.532474
vt 0.318368 0.487629
vt 0.236409 0.511334
vt 0.223044 0.552994
vt 0.200429 0.577083
vt 0.422516 0.197295
vt 0.273292 0.128564
vt 0.223981 0.151541
vt 0.256289 0.545637
vt 0.967573 0.266851
vt 0.989407 0.213322
vt 0.989602 0.326666
vt 0.210474 0.518701
vt 0.166716 0.525224
vt 0.190768 0.490942
vt 0.172044 0.479717
vt 0.289673 0.596091
vt 0.952271 0.253652
vt 0.941000 0.335907
vt 0.301027 0.533656
vt 0.317694 0.521666
vt 0.347668 0.542048
vt 0.317804 0.501566
vt 0.927752 0.203535
vt 0.943805 0.214827
vt 0.916152 0.275267
vt 0.960000 0.205000
vt 0.339666 0.481872
vt 0.926526 0.114802
vt 0.895727 0.221656
vt 0.180976 0.061809
vt 0.145080 0.079064
vt 0.104546 0.736240
vt 0.061249 0.672694
vt 0.090000 0.585000
vt 0.108796 0.739641
vt 0.109681 0.595736
vt 0.146327 0.673287
vt 0.161000 0.043000
vt 0.176000 0.031000
vt 0.779500 0.172780
vt 0.867798 0.234601
vt 0.861388 0.854872
vt 0.845472 0.816689
vt 0.903021 0.807093
vt 0.839506 0.319604
vt 0.742756 0.957060
vt 0.829105 0.881276
vt 0.893418 0.930841
vt 0.764472 0.868529
vt 0.614712 0.919370
vt 0.139629 0.909083
vt 0.206429 0.780717
vt 0.200306 0.889450
vt 0.114853 0.867284
vt 0.165151 0.773543
vt 0.415889 0.655141
vt 0.363689 0.601257
vt 0.921039 0.414462
vt 0.982458 0.370908
vt 0.902245 0.384103
vt 0.059116 0.238649
vt 0.014000 0.237680
vt 0.031017 0.188111
vt 0.054198 0.307851
vt 0.068311 0.454011
vt 0.014000 0.455585
vt 0.084543 0.379010
vt 0.106815 0.425469
vt 0.586811 0.700029
vt 0.562911 0.683476
vt 0.521934 0.719573
vt 0.587408 0.646464
vt 0.546316 0.644675
vt 0.639469 0.635823
vt 0.461539 0.831785
vt 0.485643 0.887654
vt 0.515108 0.837831
vt 0.603560 0.866055
vt 0.490992 0.754065
vt 0.455728 0.742821
vt 0.386000 0.562000
vt 0.417051 0.609440
vt 0.502673 0.514258
vt 0.415733 0.809886
vt 0.437898 0.697153
vt 0.408882 0.743884
vt 0.477410 0.421241
vt 0.314587 0.425415
vt 0.346472 0.441501
vt 0.388263 0.499999
vt 0.505113 0.398129
vt 0.526754 0.553997
vt 0.479952 0.641904
vt 0.651666 0.775166
vt 0.685721 0.783786
vt 0.706000 0.767000
vt 0.510550 0.442567
vt 0.620329 0.560456
vt 0.647816 0.529482
vt 0.552127 0.514387
vt 0.544530 0.490171
vt 0.626269 0.416187
vt 0.567251 0.373637
vt 0.676990 0.500285
vt 0.686667 0.510869
vt 0.751674 0.620273
vt 0.706210 0.608825
vt 0.759548 0.662116
vt 0.691111 0.481463
vt 0.677656 0.653558
vt 0.695000 0.697000
vt 0.692929 0.609992
vt 0.793000 0.639000
vt 0.727964 0.676604
vt 0.817715 0.673423
vt 0.872527 0.727475
vt 0.868214 0.696986
vt 0.814192 0.732384
vt 0.839841 0.741128
vt 0.718338 0.397285
vt 0.718906 0.426512
vt 0.694207 0.452921
vt 0.817000 0.772000
vt 0.678964 0.572019
vt 0.913000 0.704000
vt 0.617450 0.597427
vt 0.581153 0.578405
vt 0.784097 0.718161
vt 0.714724 0.730554
vt 0.736094 0.750501
vt 0.749973 0.706861
vt 0.271828 0.905433
vt 0.345142 0.782271
vt 0.337133 0.872810
vt 0.367269 0.846296
vt 0.329584 0.903898
vt 0.377602 0.877203
vt 0.382458 0.916979
vt 0.369849 0.960287
vt 0.573521 0.896267
vt 0.539761 0.912437
vt 0.521033 0.932115
vt 0.550361 0.933038
vt 0.361919 0.380218
vt 0.415406 0.331000
vt 0.408983 0.362860
vt 0.358989 0.346508
vt 0.397926 0.973632
vt 0.471189 0.333735
vt 0.786000 0.610000
vt 0.911939 0.561314
vt 0.814879 0.623145
vt 0.827399 0.632308
vt 0.859078 0.648678
vt 0.915136 0.563025
vt 0.872000 0.434000
vt 0.829315 0.469173
vt 0.871026 0.428399
vt 0.929935 0.492437
vt 0.779021 0.553973
vt 0.885654 0.479621
vt 0.761162 0.580331
vt 0.767942 0.589699
vt 0.770510 0.446660
vt 0.925856 0.951044
vt 0.259156 0.039653
vt 0.277000 0.011000
vt 0.252187 0.033038
vt 0.263813 0.056954
vt 0.226048 0.157650
vt 0.265155 0.096867
vt 0.145417 0.110856
vt 0.277055 0.166524
vt 0.266928 0.122624
vt 0.204920 0.257677
vt 0.221650 0.327270
vt 0.285535 0.269665
vt 0.155146 0.236778
vt 0.169997 0.355362
vt 0.306555 0.201441
vt 0.247496 0.175424
vt 0.181035 0.164361
vt 0.288922 0.355587
vt 0.241709 0.360368
vt 0.261320 0.448641
vt 0.365922 0.038037
vt 0.402389 0.072974
vt 0.406854 0.046819
vt 0.950909 0.584260
vt 0.965000 0.554000
vt 0.982551 0.595876
vt 0.982247 0.601698
vt 0.940073 0.650672
vt 0.976882 0.541028
vt 0.314528 0.304427
vt 0.353042 0.266213
vt 0.209831 0.451154
vt 0.168322 0.448498
vt 0.114675 0.327048
vt 0.126462 0.370946
vt 0.096720 0.289640
vt 0.286841 0.526223
vt 0.293308 0.482054
vt 0.236648 0.510524
vt 0.200472 0.576919
vt 0.223090 0.552923
vt 0.189449 0.470746
vt 0.419345 0.230931
vt 0.374494 0.297661
vt 0.383274 0.239232
vt 0.389368 0.172254
vt 0.254663 0.541918
vt 0.969316 0.261826
vt 0.989600 0.326455
vt 0.978989 0.190741
vt 0.217596 0.513681
vt 0.161346 0.526106
vt 0.203076 0.518636
vt 0.172000 0.480000
vt 0.290934 0.597062
vt 0.951897 0.256548
vt 0.940809 0.336068
vt 0.300813 0.533378
vt 0.325459 0.498205
vt 0.345093 0.544567
vt 0.944852 0.213219
vt 0.922205 0.212589
vt 0.922124 0.270955
vt 0.287641 0.434388
vt 0.514075 0.306762
vt 0.490000 0.357000
vt 0.338273 0.477055
vt 0.953836 0.135426
vt 0.901355 0.211413
vt 0.217016 0.059581
vt 0.063205 0.663300
vt 0.107838 0.743176
vt 0.087798 0.588166
vt 0.740402 0.941762
vt 0.889603 0.932778
vt 0.817738 0.911022
vt 0.744667 0.973948
vt 0.614218 0.918404
vt 0.786349 0.860954
vt 0.709905 0.880197
vt 0.137307 0.908915
vt 0.201849 0.884679
vt 0.206652 0.780914
vt 0.109280 0.881825
vt 0.164825 0.774504
vt 0.674641 0.828192
vt 0.134715 0.055921
vt 0.143000 0.055000
vt 0.944424 0.396527
vt 0.981980 0.369001
vt 0.988000 0.393000
vt 0.746108 0.317408
vt 0.562000 0.075000
vt 0.532640 0.659895
vt 0.537656 0.914593
vt 0.440628 0.633860
vt 0.397847 0.600532
vt 0.734743 0.685951
vt 0.698000 0.510000
vt 0.743528 0.756406
vt 0.790116 0.729211
vt 0.777439 0.758515
vt 0.749022 0.793531
vt 0.598475 0.878116
vt 0.371719 0.790691
vt 0.511000 0.928000
vt 0.545670 0.932720
vt 0.045108 0.766539
vt 0.479986 0.204173
vt 0.486356 0.170157
vt 0.516401 0.195882
vt 0.557548 0.189305
vt 0.506400 0.063480
vt 0.456863 0.184545
vt 0.959756 0.984556
vt 0.117421 0.974931
vt 0.086253 0.912756
vt 0.335529 0.113758
vt 0.320423 0.149064
vt 0.992614 0.512673
vt 0.161274 0.182811
vt 0.301443 0.175794
vt 0.949363 0.598164
vt 0.493532 0.231309
vt 0.111584 0.197660
vt 0.136462 0.230736
vt 0.105570 0.297865
vt 0.977386 0.182818
vt 0.163848 0.692030
vt 0.086000 0.812000
vt 0.899766 0.977682
vt 0.702178 0.868756
vt 0.613234 0.915263
vt 0.674044 0.824979
vt 0.124376 0.479021
vt 0.696215 0.335262
vt 0.786401 0.811635
vt 0.644560 0.821808
vt 0.461520 0.482355
vt 0.545167 0.558537
vt 0.685350 0.529214
vt 0.779548 0.757097
vt 0.790112 0.729160
vt 0.749358 0.793550
vt 0.639327 0.858633
vt 0.488159 0.221823
vt 0.488855 0.166470
vt 0.516439 0.196043
vt 0.501863 0.064204
vt 0.916000 0.688000
vt 0.320983 0.129926
vt 0.324156 0.175396
vt 0.128513 0.194077
vt 0.349274 0.223556
vt 0.465974 0.193830
vt 0.917726 0.143037
vt 0.927000 0.112000
vt 0.170811 0.048145
vt 0.900385 0.810788
vt 0.844173 0.820846
vt 0.858000 0.858000
vt 0.164146 0.686025
vt 0.140418 0.662286
vt 0.119986 0.599708
vt 0.897677 0.977526
vt 0.947291 0.374193
vt 0.903315 0.409721
vt 0.887957 0.373116
vt 0.784625 0.811948
s 1
f 3/1/1 2/2/2 1/3/3
f 5/4/4 4/5/5 1/3/3
f 5/4/4 1/3/3 2/2/2
f 6/6/6 3/1/1 1/3/3
f 8/7/7 6/6/6 1/3/3
f 5/4/4 2/2/2 7/8/8
f 5/4/4 7/8/8 138/9/9
f 5/4/4 138/9/9 10/10/10
f 5/11/4 10/12/10 9/13/11
f 13/14/12 12/15/13 11/16/14
f 19/17/15 14/18/16 16/19/17
f 22/20/18 25/21/19 19/17/15
f 22/20/18 19/17/15 16/19/17
f 23/22/20 25/21/19 22/20/18
f 22/20/18 21/23/21 23/22/20
f 23/22/20 21/23/21 55/24/22
f 23/22/20 55/24/22 24/25/23
f 24/26/23 15/27/24 18/28/25
f 19/29/15 25/30/19 26/31/26
f 27/32/27 23/33/20 24/34/23
f 25/30/19 23/33/20 27/32/27
f 27/32/27 24/34/23 30/35/28
f 29/36/29 24/25/23 55/24/22
f 28/37/30 30/38/28 24/39/23
f 31/40/31 27/32/27 30/35/28
f 30/41/28 32/42/32 34/43/33
f 28/44/30 35/45/34 32/42/32
f 28/44/30 31/40/31 35/45/34
f 35/45/34 31/40/31 30/35/28
f 35/45/34 30/35/28 33/46/35
f 46/47/36 41/48/37 39/49/38
f 36/50/39 37/51/40 46/52/36
f 39/49/38 40/53/41 42/54/42
f 36/55/39 39/49/38 42/54/42
f 41/48/37 42/56/42 40/57/41
f 37/51/40 35/45/34 38/58/43
f 42/56/42 41/48/37 46/47/36
f 42/56/42 46/47/36 43/59/44
f 45/60/45 46/61/36 37/62/40
f 45/60/45 44/63/46 46/64/36
f 44/63/46 37/62/40 43/65/44
f 38/58/43 35/45/34 33/46/35
f 42/66/42 43/67/44 47/68/47
f 43/65/44 46/64/36 44/63/46
f 32/42/32 36/50/39 47/69/47
f 32/42/32 47/69/47 34/43/33
f 36/50/39 50/70/48 48/71/49
f 34/43/33 47/69/47 38/72/43
f 33/73/35 34/43/33 38/72/43
f 50/74/48 51/75/50 49/76/51
f 47/77/47 51/75/50 50/74/48
f 47/77/47 50/74/48 42/78/42
f 70/79/52 29/80/29 52/81/53
f 29/82/29 70/83/52 17/84/54
f 55/85/22 21/86/21 56/87/55
f 55/85/22 56/87/55 57/88/56
f 57/88/56 56/87/55 58/89/57
f 57/88/56 58/89/57 189/90/58
f 189/90/58 58/89/57 59/91/59
f 56/87/55 21/86/21 60/92/60
f 58/89/57 56/87/55 61/93/61
f 60/92/60 21/86/21 62/94/62
f 60/92/60 62/94/62 63/95/63
f 62/94/62 21/86/21 66/96/64
f 62/94/62 66/96/64 65/97/65
f 63/95/63 65/97/65 67/98/66
f 56/87/55 60/92/60 61/93/61
f 58/89/57 61/93/61 59/91/59
f 66/96/64 21/86/21 68/99/67
f 66/96/64 68/99/67 67/98/66
f 54/100/68 22/20/18 16/19/17
f 70/101/52 69/102/69 76/103/70
f 70/101/52 76/103/70 53/104/71
f 54/105/68 78/106/72 74/107/73
f 67/98/66 68/99/67 74/108/73
f 69/102/69 71/109/74 114/110/75
f 69/102/69 114/110/75 76/103/70
f 80/111/76 82/112/77 83/113/78
f 82/114/77 79/115/79 83/116/78
f 80/111/76 83/113/78 84/117/80
f 85/118/81 102/119/82 87/120/83
f 91/121/84 87/120/83 102/119/82
f 85/118/81 87/120/83 92/122/85
f 92/122/85 88/123/86 86/124/87
f 87/120/83 88/123/86 92/122/85
f 86/125/87 85/118/81 92/122/85
f 89/126/88 84/127/80 86/124/87
f 84/128/80 89/129/88 93/130/89
f 72/131/90 69/132/69 75/133/91
f 86/124/87 88/123/86 89/126/88
f 95/134/92 100/135/93 97/136/94
f 100/135/93 72/137/90 97/136/94
f 104/138/95 105/139/96 107/140/97
f 108/141/98 106/142/99 104/138/95
f 103/143/100 105/139/96 104/138/95
f 103/143/100 104/138/95 122/144/101
f 104/138/95 106/142/99 110/145/102
f 104/138/95 110/145/102 122/144/101
f 108/141/98 109/146/103 111/147/104
f 127/148/105 111/147/104 109/146/103
f 127/148/105 109/146/103 112/149/106
f 66/96/64 67/98/66 65/97/65
f 105/139/96 85/150/81 113/151/107
f 77/152/108 113/151/107 85/150/81
f 96/153/109 84/154/80 79/155/79
f 77/156/108 96/157/109 79/158/79
f 106/142/99 108/141/98 115/159/110
f 115/160/110 112/149/106 107/140/97
f 115/160/110 107/140/97 113/151/107
f 107/140/97 105/139/96 113/151/107
f 127/161/105 115/159/110 116/162/111
f 115/159/110 108/141/98 116/162/111
f 118/163/112 111/147/104 117/164/113
f 119/165/114 116/162/111 111/147/104
f 119/165/114 120/166/115 121/167/116
f 76/103/70 82/168/77 78/106/72
f 76/103/70 78/106/72 54/105/68
f 94/169/117 103/143/100 122/144/101
f 94/169/117 122/144/101 101/170/118
f 123/171/119 120/166/115 119/165/114
f 123/172/119 126/173/120 121/174/116
f 123/171/119 121/167/116 120/166/115
f 126/175/120 119/165/114 121/167/116
f 119/165/114 125/176/121 124/177/122
f 125/176/121 126/178/120 124/177/122
f 125/176/121 119/165/114 126/175/120
f 118/163/112 128/179/123 123/171/119
f 129/180/124 123/172/119 128/181/123
f 118/163/112 129/182/124 128/179/123
f 118/163/112 123/171/119 119/165/114
f 118/163/112 117/164/113 130/183/125
f 118/163/112 130/183/125 129/182/124
f 130/183/125 131/184/126 129/182/124
f 132/185/127 130/183/125 117/164/113
f 132/186/127 129/187/124 131/188/126
f 130/183/125 132/185/127 131/184/126
f 129/180/124 127/189/105 126/173/120
f 129/180/124 126/173/120 123/172/119
f 117/164/113 111/147/104 127/148/105
f 117/164/113 133/190/128 132/185/127
f 127/191/105 129/187/124 132/186/127
f 127/191/105 132/186/127 133/192/128
f 133/190/128 117/164/113 127/148/105
f 72/137/90 134/193/129 97/136/94
f 72/137/90 135/194/130 134/193/129
f 136/195/131 98/196/132 137/197/133
f 136/198/131 13/199/12 99/200/134
f 138/201/9 139/202/135 134/193/129
f 138/9/9 140/203/136 139/204/135
f 98/205/132 97/206/94 137/207/133
f 6/6/6 139/204/135 140/203/136
f 137/208/133 139/204/135 6/6/6
f 141/209/137 137/210/133 97/211/94
f 141/209/137 139/212/135 137/210/133
f 142/213/138 139/212/135 141/209/137
f 144/214/139 143/215/140 137/216/133
f 13/217/12 143/218/140 144/214/139
f 12/15/13 13/219/12 144/220/139
f 138/9/9 7/8/8 140/203/136
f 138/221/9 9/222/11 10/223/10
f 146/224/141 70/225/52 52/226/53
f 75/227/91 147/228/142 72/229/90
f 75/227/91 149/230/143 150/231/144
f 153/232/145 158/233/146 159/234/147
f 158/233/146 156/235/148 157/236/149
f 158/233/146 157/236/149 159/234/147
f 156/235/148 161/237/150 157/236/149
f 162/238/151 163/239/152 160/240/153
f 160/240/153 155/241/154 159/234/147
f 162/238/151 160/240/153 164/242/155
f 162/238/151 164/242/155 165/243/156
f 159/244/147 157/245/149 168/246/157
f 162/238/151 165/243/156 55/247/22
f 165/243/156 161/248/150 154/249/158
f 167/250/159 161/251/150 165/252/156
f 164/253/155 167/250/159 165/252/156
f 167/250/159 170/254/160 161/251/150
f 157/245/149 169/255/161 168/246/157
f 161/256/150 169/255/161 157/245/149
f 55/247/22 165/243/156 154/249/158
f 154/257/158 29/258/29 55/259/22
f 169/255/161 161/256/150 170/38/160
f 171/260/162 170/254/160 167/250/159
f 173/261/163 177/262/164 169/263/161
f 168/264/157 169/263/161 177/262/164
f 174/265/165 172/266/166 170/254/160
f 174/265/165 170/254/160 171/260/162
f 174/265/165 171/260/162 168/264/157
f 168/264/157 177/262/164 175/267/167
f 175/267/167 177/262/164 178/268/168
f 179/269/169 180/270/170 178/271/168
f 176/272/171 174/265/165 168/264/157
f 179/273/169 181/59/172 176/274/171
f 179/273/169 176/274/171 180/275/170
f 179/269/169 178/271/168 181/276/172
f 180/275/170 176/274/171 175/277/167
f 183/278/173 176/279/171 184/280/174
f 183/278/173 184/281/174 182/282/175
f 178/66/168 185/283/176 181/284/172
f 181/284/172 185/283/176 182/285/175
f 182/282/175 184/281/174 181/286/172
f 177/262/164 173/261/163 185/287/176
f 181/288/172 184/280/174 176/279/171
f 173/261/163 174/289/165 185/287/176
f 172/290/166 174/289/165 173/261/163
f 187/291/177 178/292/168 186/293/178
f 178/292/168 187/291/177 188/294/179
f 185/77/176 178/292/168 188/294/179
f 55/85/22 57/88/56 162/295/151
f 189/90/58 61/93/61 190/296/180
f 189/90/58 190/296/180 57/88/56
f 59/91/59 61/93/61 189/90/58
f 190/296/180 191/297/181 162/295/151
f 190/296/180 162/295/151 57/88/56
f 190/296/180 192/298/182 191/297/181
f 191/297/181 163/299/152 162/295/151
f 191/297/181 193/300/183 163/299/152
f 63/95/63 67/98/66 193/300/183
f 63/95/63 193/300/183 192/298/182
f 193/300/183 67/98/66 194/301/184
f 61/93/61 60/92/60 190/296/180
f 194/301/184 195/302/185 163/299/152
f 196/303/186 155/241/154 160/240/153
f 197/304/187 195/305/185 198/306/188
f 146/307/141 199/308/189 75/309/91
f 199/308/189 146/307/141 155/310/154
f 67/98/66 74/108/73 198/311/188
f 67/98/66 198/311/188 194/301/184
f 75/309/91 199/308/189 149/312/143
f 203/313/190 205/314/191 201/315/192
f 201/315/192 205/314/191 204/316/193
f 80/111/76 206/317/194 205/318/191
f 211/319/195 210/320/196 90/321/197
f 207/322/198 212/323/199 209/324/200
f 212/323/199 208/325/201 210/320/196
f 208/326/201 212/323/199 207/322/198
f 89/126/88 208/325/201 207/327/198
f 89/126/88 207/327/198 206/127/194
f 206/328/194 93/130/89 89/129/88
f 208/325/201 89/126/88 210/320/196
f 98/329/132 99/330/134 248/331/202
f 98/329/132 248/331/202 216/332/203
f 217/333/204 214/334/205 147/335/142
f 218/336/206 213/337/207 217/333/204
f 221/338/208 224/339/209 220/340/210
f 221/338/208 223/341/211 225/342/212
f 221/338/208 225/342/212 224/339/209
f 219/343/213 221/338/208 220/340/210
f 219/343/213 222/344/214 221/338/208
f 221/338/208 222/344/214 148/345/215
f 227/346/216 226/347/217 229/348/218
f 201/349/192 204/350/193 200/351/219
f 207/352/198 200/353/219 215/354/220
f 215/355/220 204/155/193 206/356/194
f 200/353/219 204/357/193 215/354/220
f 220/340/210 228/358/221 200/359/219
f 231/360/222 225/342/212 230/361/223
f 231/360/222 224/339/209 225/342/212
f 225/342/212 228/362/221 227/363/216
f 228/362/221 225/342/212 200/364/219
f 233/365/224 232/366/225 229/348/218
f 234/367/226 229/348/218 231/360/222
f 234/367/226 236/368/227 235/369/228
f 230/361/223 237/370/229 231/360/222
f 203/371/190 196/372/186 198/373/188
f 202/374/230 203/371/190 198/373/188
f 222/344/214 217/333/204 148/345/215
f 238/375/231 234/367/226 235/369/228
f 238/376/231 236/377/227 237/378/229
f 238/375/231 235/369/228 236/368/227
f 237/379/229 236/368/227 234/367/226
f 231/360/222 237/370/229 239/380/232
f 240/381/233 231/360/222 239/380/232
f 234/367/226 231/360/222 240/381/233
f 240/382/233 239/380/232 237/370/229
f 233/365/224 238/375/231 241/383/234
f 242/384/235 241/385/234 238/376/231
f 233/365/224 241/383/234 242/386/235
f 233/365/224 234/367/226 238/375/231
f 233/365/224 244/387/236 232/366/225
f 233/365/224 243/388/237 244/387/236
f 233/365/224 242/386/235 243/388/237
f 242/389/235 244/390/236 243/391/237
f 242/384/235 238/376/231 237/378/229
f 232/366/225 230/392/223 229/348/218
f 149/312/143 223/393/211 150/394/144
f 245/395/238 232/366/225 244/387/236
f 237/396/229 245/397/238 244/390/236
f 237/396/229 244/390/236 242/389/235
f 237/379/229 234/367/226 240/381/233
f 147/335/142 214/334/205 246/398/239
f 147/335/142 135/194/130 72/137/90
f 248/399/202 247/400/240 8/401/7
f 249/402/241 246/403/239 8/404/7
f 250/405/242 249/402/241 251/406/243
f 249/402/241 8/404/7 1/407/3
f 249/402/241 1/407/3 252/408/244
f 251/406/243 249/402/241 252/408/244
f 11/409/14 8/410/7 253/411/245
f 13/412/12 11/409/14 253/413/245
f 251/406/243 252/408/244 250/414/242
f 9/415/11 135/194/130 254/416/246
f 255/417/247 9/418/11 254/419/246
f 249/402/241 250/405/242 246/403/239
f 2/2/2 3/1/1 7/8/8
f 7/8/8 3/1/1 6/6/6
f 8/7/7 144/420/139 6/6/6
f 9/421/11 4/5/5 5/4/4
f 12/15/13 144/220/139 11/16/14
f 14/18/16 17/84/54 16/19/17
f 14/18/16 15/27/24 17/84/54
f 14/18/16 20/422/248 18/28/25
f 73/423/249 21/23/21 22/20/18
f 18/424/25 20/425/248 28/37/30
f 54/100/68 73/423/249 22/20/18
f 14/18/16 18/28/25 15/27/24
f 26/31/26 28/37/30 19/29/15
f 19/29/15 28/37/30 20/425/248
f 29/82/29 17/84/54 15/27/24
f 24/26/23 29/82/29 15/27/24
f 18/424/25 28/37/30 24/39/23
f 26/31/26 27/32/27 31/40/31
f 26/31/26 31/40/31 28/44/30
f 25/30/19 27/32/27 26/31/26
f 28/44/30 32/42/32 30/41/28
f 30/41/28 34/43/33 33/73/35
f 37/51/40 36/50/39 35/45/34
f 35/45/34 36/50/39 32/42/32
f 39/49/38 41/48/37 40/53/41
f 46/47/36 39/49/38 36/426/39
f 50/70/48 36/50/39 42/427/42
f 44/63/46 45/60/45 37/62/40
f 43/67/44 37/51/40 38/58/43
f 47/68/47 43/67/44 38/58/43
f 36/50/39 48/71/49 47/69/47
f 48/428/49 50/74/48 49/429/51
f 48/428/49 49/429/51 51/430/50
f 51/430/50 47/431/47 48/428/49
f 17/84/54 70/83/52 53/432/71
f 53/432/71 16/19/17 17/84/54
f 63/95/63 64/433/250 60/92/60
f 62/94/62 65/97/65 63/95/63
f 60/92/60 64/433/250 190/296/180
f 53/432/71 54/100/68 16/19/17
f 21/23/21 73/423/249 68/434/67
f 74/435/73 68/434/67 73/423/249
f 74/435/73 73/423/249 54/100/68
f 70/436/52 75/133/91 69/132/69
f 76/103/70 77/437/108 82/168/77
f 114/110/75 77/437/108 76/103/70
f 78/438/72 82/439/77 80/440/76
f 78/438/72 80/440/76 74/441/73
f 77/437/108 79/442/79 82/168/77
f 83/113/78 79/115/79 84/117/80
f 88/123/86 90/321/197 89/126/88
f 87/120/83 91/121/84 88/123/86
f 80/443/76 84/128/80 93/130/89
f 81/444/251 71/445/74 72/131/90
f 72/131/90 71/445/74 69/132/69
f 90/321/197 88/123/86 91/121/84
f 216/332/203 94/169/117 98/329/132
f 98/329/132 94/169/117 95/134/92
f 94/169/117 90/446/197 91/447/84
f 86/125/87 84/448/80 85/118/81
f 90/446/197 94/169/117 216/332/203
f 98/329/132 95/134/92 97/136/94
f 95/134/92 94/169/117 100/135/93
f 100/135/93 101/170/118 81/449/251
f 100/135/93 94/169/117 101/170/118
f 91/447/84 102/450/82 94/169/117
f 102/450/82 105/139/96 103/143/100
f 94/169/117 102/450/82 103/143/100
f 81/449/251 110/145/102 106/142/99
f 108/141/98 104/138/95 109/146/103
f 109/146/103 104/138/95 107/140/97
f 112/149/106 109/146/103 107/140/97
f 85/451/81 96/157/109 77/156/108
f 85/150/81 105/139/96 102/450/82
f 96/157/109 85/451/81 84/154/80
f 113/452/107 77/437/108 114/110/75
f 71/453/74 81/449/251 114/454/75
f 100/135/93 81/449/251 72/137/90
f 106/142/99 115/159/110 113/455/107
f 114/454/75 81/449/251 106/142/99
f 112/149/106 115/160/110 127/148/105
f 111/147/104 116/162/111 108/141/98
f 106/142/99 113/455/107 114/454/75
f 111/147/104 118/163/112 119/165/114
f 53/104/71 76/103/70 54/105/68
f 101/170/118 110/145/102 81/449/251
f 110/145/102 101/170/118 122/144/101
f 124/456/122 126/173/120 127/189/105
f 116/162/111 124/177/122 127/161/105
f 20/422/248 14/18/16 19/17/15
f 124/177/122 116/162/111 119/165/114
f 136/198/131 99/200/134 98/457/132
f 136/198/131 137/197/133 13/199/12
f 7/8/8 6/6/6 140/203/136
f 143/218/140 13/217/12 137/458/133
f 137/208/133 6/6/6 144/420/139
f 97/211/94 134/459/129 141/209/137
f 145/460/252 142/461/138 141/462/137
f 134/193/129 135/194/130 9/415/11
f 9/415/11 138/201/9 134/193/129
f 146/224/141 75/227/91 70/225/52
f 148/463/215 147/228/142 150/231/144
f 147/228/142 75/227/91 150/231/144
f 11/464/14 144/420/139 8/7/7
f 145/460/252 139/212/135 142/213/138
f 134/465/129 139/212/135 145/460/252
f 145/460/252 141/462/137 134/465/129
f 52/466/53 153/232/145 155/241/154
f 153/232/145 52/466/53 154/257/158
f 153/232/145 159/234/147 155/241/154
f 158/233/146 153/232/145 156/235/148
f 197/304/187 160/240/153 163/239/152
f 196/303/186 160/240/153 197/304/187
f 153/232/145 154/257/158 156/235/148
f 160/240/153 159/234/147 164/242/155
f 154/257/158 161/237/150 156/235/148
f 29/258/29 154/257/158 52/466/53
f 166/467/253 171/260/162 167/250/159
f 166/467/253 168/264/157 171/260/162
f 164/253/155 166/467/253 167/250/159
f 169/263/161 170/468/160 173/261/163
f 170/468/160 172/290/166 173/261/163
f 176/272/171 168/264/157 175/267/167
f 175/277/167 178/271/168 180/270/170
f 178/268/168 177/262/164 186/469/178
f 164/253/155 159/244/147 166/467/253
f 166/467/253 159/244/147 168/246/157
f 182/282/175 176/279/171 183/278/173
f 182/285/175 174/265/165 176/272/171
f 185/283/176 174/265/165 182/285/175
f 177/262/164 185/287/176 186/469/178
f 186/293/178 188/470/179 187/471/177
f 188/470/179 186/293/178 185/472/176
f 52/466/53 155/241/154 146/473/141
f 192/298/182 190/296/180 64/433/250
f 191/297/181 192/298/182 193/300/183
f 194/301/184 163/299/152 193/300/183
f 192/298/182 64/433/250 63/95/63
f 195/305/185 197/304/187 163/239/152
f 198/306/188 196/303/186 197/304/187
f 196/372/186 199/308/189 155/310/154
f 149/312/143 203/371/190 200/474/219
f 149/312/143 199/308/189 203/371/190
f 202/475/230 80/440/76 203/476/190
f 198/311/188 195/302/185 194/301/184
f 202/475/230 74/441/73 80/440/76
f 198/477/188 74/441/73 202/475/230
f 80/111/76 205/318/191 203/478/190
f 205/318/191 206/317/194 204/316/193
f 210/320/196 89/126/88 90/321/197
f 212/323/199 210/320/196 209/324/200
f 80/443/76 93/130/89 206/328/194
f 211/319/195 209/324/200 210/320/196
f 90/446/197 216/332/203 211/479/195
f 216/332/203 214/334/205 213/337/207
f 211/479/195 216/332/203 213/337/207
f 213/337/207 218/336/206 211/479/195
f 218/336/206 219/343/213 209/480/200
f 209/480/200 211/479/195 218/336/206
f 218/336/206 222/344/214 219/343/213
f 223/341/211 221/338/208 150/481/144
f 150/481/144 221/338/208 148/345/215
f 226/347/217 227/346/216 224/339/209
f 227/346/216 228/358/221 224/339/209
f 226/347/217 231/360/222 229/348/218
f 220/340/210 207/482/198 219/343/213
f 207/482/198 209/480/200 219/343/213
f 206/356/194 207/352/198 215/355/220
f 200/359/219 207/482/198 220/340/210
f 200/474/219 223/393/211 149/312/143
f 229/348/218 230/392/223 227/346/216
f 226/347/217 224/339/209 231/360/222
f 225/342/212 227/363/216 230/361/223
f 223/341/211 200/364/219 225/342/212
f 229/348/218 234/367/226 233/365/224
f 199/308/189 196/372/186 203/371/190
f 203/371/190 201/483/192 200/474/219
f 222/344/214 218/336/206 217/333/204
f 147/335/142 148/345/215 217/333/204
f 228/358/221 220/340/210 224/339/209
f 245/397/238 237/396/229 232/484/225
f 237/396/229 230/485/223 232/484/225
f 147/335/142 246/398/239 135/194/130
f 135/194/130 246/398/239 4/486/5
f 248/331/202 246/398/239 216/332/203
f 8/487/7 246/488/239 248/489/202
f 246/398/239 214/334/205 216/332/203
f 247/400/240 248/490/202 99/491/134
f 13/492/12 247/400/240 99/491/134
f 247/400/240 13/492/12 8/401/7
f 253/413/245 8/458/7 13/412/12
f 246/403/239 250/405/242 4/493/5
f 4/486/5 254/416/246 135/194/130
f 255/494/254 256/495/255 151/496/256
f 214/334/205 217/333/204 213/337/207
f 4/497/5 252/408/244 1/407/3
f 252/408/244 4/497/5 250/414/242
l 151 152
